<svg width="1452" height="466" viewBox="0 0 1452 466" fill="none" xmlns="http://www.w3.org/2000/svg">
<g clip-path="url(#clip0_153_31)">
<rect width="1452" height="466" fill="white"/>
<path d="M0 0H1452V466H0V0Z" fill="black"/>
<path d="M501.762 -740.596C501.762 -740.596 622.174 -594.271 580.717 -507.663C539.26 -421.055 391.228 -509.679 349.771 -423.071C308.315 -336.463 470.183 -276.746 428.727 -190.138C387.27 -103.53 239.238 -192.154 197.781 -105.546C156.324 -18.9386 318.193 40.7791 276.736 127.387C235.279 213.994 87.2471 125.371 45.7903 211.979C4.33356 298.586 166.202 358.304 124.745 444.912C83.2887 531.519 -106.2 529.503 -106.2 529.503" stroke="#3D4820" stroke-width="15"/>
<path d="M497.259 -790.365C497.259 -790.365 617.671 -644.04 576.214 -557.432C534.757 -470.825 386.725 -559.448 345.268 -472.841C303.812 -386.233 465.68 -326.515 424.223 -239.908C382.767 -153.3 234.734 -241.923 193.278 -155.316C151.821 -68.7082 313.69 -8.99046 272.233 77.6172C230.776 164.225 82.7439 75.6013 41.2871 162.209C-0.169614 248.817 161.699 308.534 120.242 395.142C78.7855 481.75 -110.703 479.734 -110.703 479.734" stroke="#697B38" stroke-width="10"/>
<path d="M472.009 -737.616C472.009 -737.616 592.421 -591.291 550.964 -504.683C509.508 -418.076 361.475 -506.699 320.019 -420.092C278.562 -333.484 440.431 -273.766 398.974 -187.159C357.517 -100.551 209.485 -189.174 168.028 -102.567C126.571 -15.9591 288.44 43.7586 246.983 130.366C205.527 216.974 57.4944 128.35 16.0376 214.958C-25.4191 301.566 136.45 361.283 94.9928 447.891C53.536 534.499 -135.953 532.483 -135.953 532.483" stroke="#AAC75A" stroke-width="5"/>
<path d="M1227.62 -430.486C1227.62 -430.486 1348.03 -284.16 1306.57 -197.553C1265.12 -110.945 1117.08 -199.568 1075.63 -112.961C1034.17 -26.3531 1196.04 33.3646 1154.58 119.972C1113.13 206.58 965.094 117.956 923.637 204.564C882.181 291.172 1044.05 350.889 1002.59 437.497C961.136 524.105 813.104 435.481 771.647 522.089C730.19 608.697 892.059 668.414 850.602 755.022C809.145 841.63 619.656 839.614 619.656 839.614" stroke="#591D24" stroke-width="15"/>
<path d="M1223.12 -480.255C1223.12 -480.255 1343.53 -333.929 1302.07 -247.322C1260.61 -160.714 1112.58 -249.337 1071.12 -162.73C1029.67 -76.1221 1191.54 -16.4044 1150.08 70.2032C1108.62 156.811 960.591 68.1874 919.134 154.795C877.678 241.403 1039.55 301.12 998.09 387.728C956.633 474.336 808.601 385.712 767.144 472.32C725.687 558.927 887.556 618.645 846.099 705.253C804.642 791.86 615.153 789.845 615.153 789.845" stroke="#8C2F3A" stroke-width="10"/>
<path d="M1197.87 -427.506C1197.87 -427.506 1318.28 -281.18 1276.82 -194.573C1235.36 -107.965 1087.33 -196.588 1045.88 -109.981C1004.42 -23.3731 1166.29 36.3446 1124.83 122.952C1083.37 209.56 935.341 120.936 893.885 207.544C852.428 294.152 1014.3 353.869 972.84 440.477C931.383 527.085 783.351 438.461 741.894 525.069C700.437 611.677 862.306 671.394 820.849 758.002C779.392 844.61 589.904 842.594 589.904 842.594" stroke="#D84859" stroke-width="5"/>
<path d="M762.863 -585.861C762.863 -585.861 883.275 -439.536 841.818 -352.928C800.362 -266.32 652.33 -354.944 610.873 -268.336C569.416 -181.729 731.285 -122.011 689.828 -35.4032C648.371 51.2044 500.339 -37.4191 458.882 49.1886C417.425 135.796 579.294 195.514 537.837 282.122C496.381 368.729 348.348 280.106 306.892 366.713C265.435 453.321 427.304 513.039 385.847 599.646C344.39 686.254 154.901 684.238 154.901 684.238" stroke="#303F4D" stroke-width="15"/>
<path d="M758.36 -635.63C758.36 -635.63 878.772 -489.305 837.315 -402.697C795.858 -316.089 647.826 -404.713 606.369 -318.105C564.913 -231.498 726.781 -171.78 685.324 -85.1723C643.868 1.43538 495.836 -87.1881 454.379 -0.580454C412.922 86.0272 574.791 145.745 533.334 232.353C491.877 318.96 343.845 230.337 302.388 316.944C260.931 403.552 422.8 463.27 381.343 549.877C339.887 636.485 150.398 634.469 150.398 634.469" stroke="#516981" stroke-width="10"/>
<path d="M733.11 -582.881C733.11 -582.881 853.522 -436.555 812.065 -349.948C770.608 -263.34 622.576 -351.963 581.119 -265.356C539.663 -178.748 701.531 -119.03 660.074 -32.4228C618.618 54.1849 470.586 -34.4386 429.129 52.1691C387.672 138.777 549.541 198.494 508.084 285.102C466.627 371.71 318.595 283.086 277.138 369.694C235.681 456.302 397.55 516.019 356.093 602.627C314.637 689.235 125.148 687.219 125.148 687.219" stroke="#81A7CD" stroke-width="5"/>
<path d="M1473.71 -275.798C1473.71 -275.798 1594.12 -129.473 1552.66 -42.865C1511.21 43.7426 1363.17 -44.8809 1321.72 41.7268C1280.26 128.334 1442.13 188.052 1400.67 274.66C1359.21 361.267 1211.18 272.644 1169.73 359.252C1128.27 445.859 1290.14 505.577 1248.68 592.185C1207.22 678.792 1059.19 590.169 1017.74 676.776C976.279 763.384 1138.15 823.102 1096.69 909.709C1055.23 996.317 865.745 994.301 865.745 994.301" stroke="#934B39" stroke-width="15"/>
<path d="M1469.19 -325.533C1469.19 -325.533 1589.6 -179.208 1548.14 -92.6004C1506.68 -5.99275 1358.65 -94.6162 1317.19 -8.00857C1275.74 78.5991 1437.61 138.317 1396.15 224.924C1354.69 311.532 1206.66 222.909 1165.2 309.516C1123.75 396.124 1285.62 455.842 1244.16 542.449C1202.7 629.057 1054.67 540.433 1013.21 627.041C971.757 713.649 1133.63 773.366 1092.17 859.974C1050.71 946.582 861.223 944.566 861.223 944.566" stroke="#C6664E" stroke-width="10"/>
<path d="M1443.95 -272.818C1443.95 -272.818 1564.37 -126.493 1522.91 -39.8851C1481.45 46.7226 1333.42 -41.9009 1291.96 44.7068C1250.51 131.314 1412.38 191.032 1370.92 277.64C1329.46 364.247 1181.43 275.624 1139.97 362.232C1098.52 448.839 1260.38 508.557 1218.93 595.165C1177.47 681.772 1029.44 593.149 987.982 679.756C946.525 766.364 1108.39 826.082 1066.94 912.689C1025.48 999.297 835.992 997.281 835.992 997.281" stroke="#FF8364" stroke-width="5"/>
<path d="M1798.01 -121.574C1798.01 -121.574 1918.43 24.7509 1876.97 111.359C1835.51 197.966 1687.48 109.343 1646.02 195.95C1604.57 282.558 1766.44 342.276 1724.98 428.883C1683.52 515.491 1535.49 426.868 1494.03 513.475C1452.58 600.083 1614.44 659.801 1572.99 746.408C1531.53 833.016 1383.5 744.392 1342.04 831C1300.59 917.608 1462.45 977.325 1421 1063.93C1379.54 1150.54 1190.05 1148.52 1190.05 1148.52" stroke="#772060" stroke-width="15"/>
<path d="M1793.51 -171.344C1793.51 -171.344 1913.92 -25.0186 1872.46 61.5891C1831.01 148.197 1682.98 59.5732 1641.52 146.181C1600.06 232.789 1761.93 292.506 1720.47 379.114C1679.02 465.722 1530.99 377.098 1489.53 463.706C1448.07 550.313 1609.94 610.031 1568.48 696.639C1527.03 783.246 1378.99 694.623 1337.54 781.23C1296.08 867.838 1457.95 927.556 1416.49 1014.16C1375.04 1100.77 1185.55 1098.76 1185.55 1098.76" stroke="#AB2E89" stroke-width="10"/>
<path d="M1768.26 -118.594C1768.26 -118.594 1888.67 27.7314 1847.22 114.339C1805.76 200.947 1657.73 112.323 1616.27 198.931C1574.81 285.539 1736.68 345.256 1695.23 431.864C1653.77 518.472 1505.74 429.848 1464.28 516.456C1422.82 603.063 1584.69 662.781 1543.23 749.389C1501.78 835.996 1353.75 747.373 1312.29 833.98C1270.83 920.588 1432.7 980.306 1391.24 1066.91C1349.79 1153.52 1160.3 1151.51 1160.3 1151.51" stroke="#F742C6" stroke-width="5"/>
<path d="M1905.61 -392.687C1905.61 -392.687 2026.02 -246.362 1984.57 -159.754C1943.11 -73.1466 1795.08 -161.77 1753.62 -75.1624C1712.16 11.4453 1874.03 71.163 1832.57 157.771C1791.12 244.378 1643.09 155.755 1601.63 242.362C1560.17 328.97 1722.04 388.688 1680.58 475.295C1639.13 561.903 1491.1 473.28 1449.64 559.887C1408.18 646.495 1570.05 706.213 1528.59 792.82C1487.14 879.428 1297.65 877.412 1297.65 877.412" stroke="white"/>
</g>
<defs>
<clipPath id="clip0_153_31">
<rect width="1452" height="466" fill="white"/>
</clipPath>
</defs>
</svg>
