<svg width="80" height="81" viewBox="0 0 80 81" fill="none" xmlns="http://www.w3.org/2000/svg">
<path d="M58.32 48.5418C57.3175 48.0279 52.435 45.6157 51.5225 45.2714C50.61 44.9423 49.9475 44.7702 49.2825 45.7852C48.6325 46.775 46.7175 49.0404 46.1325 49.7011C45.5475 50.3618 44.9725 50.4124 43.985 49.9643C42.9825 49.4505 39.78 48.395 35.9775 44.9423C33.0075 42.2668 31.03 38.9711 30.4425 37.9561C29.8575 36.9537 30.3775 36.3867 30.8725 35.8855C31.3275 35.4248 31.875 34.7262 32.3825 34.1187C32.865 33.5112 33.02 33.1037 33.3725 32.4456C33.6975 31.7343 33.53 31.1799 33.2825 30.6787C33.035 30.1776 31.0425 25.2087 30.21 23.2293C29.415 21.265 28.5825 21.5156 27.97 21.5156C27.3975 21.4625 26.7325 21.4625 26.07 21.4625C25.4075 21.4625 24.325 21.7131 23.4125 22.6749C22.5 23.69 19.9225 26.1149 19.9225 31.0205C19.9225 35.9387 23.49 40.6974 23.985 41.4087C24.4925 42.0668 31.0025 52.1918 40.99 56.5431C43.3725 57.5581 45.2225 58.1656 46.6675 58.6668C49.05 59.4312 51.225 59.3249 52.9425 59.0743C54.8425 58.7579 58.8275 56.6342 59.6625 54.2624C60.51 51.8754 60.51 49.8985 60.2625 49.4505C60.015 48.9898 59.365 48.7392 58.3625 48.2912L58.32 48.5418ZM40.2075 73.4062H40.155C34.2425 73.4062 28.3975 71.7837 23.2925 68.7513L22.095 68.0273L9.595 71.323L12.955 59.0085L12.1475 57.7429C8.8525 52.4298 7.095 46.2991 7.095 39.9988C7.095 21.6219 21.9525 6.63187 40.2325 6.63187C49.0875 6.63187 57.395 10.125 63.645 16.4531C69.895 22.7281 73.345 31.1394 73.345 40.052C73.32 58.4162 58.475 73.4062 40.22 73.4062H40.2075ZM68.3975 11.6412C60.7925 4.20441 50.7925 0 40.155 0C18.215 0 0.35 18.0098 0.3375 40.1431C0.3375 47.2103 2.16 54.1055 5.65 60.2083L0 81L21.12 75.4237C26.94 78.6004 33.49 80.3014 40.1575 80.314H40.17C62.1225 80.314 79.9875 62.3042 80 40.1558C80 29.4384 75.8725 19.3514 68.3475 11.7703L68.3975 11.6412Z" fill="white"/>
</svg>
