<svg width="236" height="121" viewBox="0 0 236 121" fill="none" xmlns="http://www.w3.org/2000/svg">
<path d="M46.0797 108.12C45.9597 108.12 45.8297 108.08 45.6897 108V87.93C45.6897 87.23 45.9397 86.88 46.4397 86.88C46.5597 86.88 46.6897 86.92 46.8297 87V107.07C46.8297 107.77 46.5797 108.12 46.0797 108.12ZM78.4429 87.39C78.1829 87.79 78.0029 88.21 77.9029 88.65C77.8229 89.09 77.7829 89.73 77.7829 90.57V107.07C77.7829 107.77 77.5329 108.12 77.0329 108.12C76.9129 108.12 76.7829 108.08 76.6429 108V90.57C76.6429 89.63 76.6729 88.96 76.7329 88.56C76.6129 88.8 76.3029 89.5 75.8029 90.66L68.9029 105.9H68.4229L60.6829 88.8V107.07C60.6829 107.77 60.4329 108.12 59.9329 108.12C59.8129 108.12 59.6829 108.08 59.5429 108V88.08C59.5429 87.28 59.8729 86.88 60.5329 86.88C60.7129 86.88 60.8829 86.92 61.0429 87L68.6629 103.98L75.8329 88.02C76.0329 87.58 76.2229 87.28 76.4029 87.12C76.5829 86.96 76.8329 86.88 77.1529 86.88C77.3129 86.88 77.4929 86.9 77.6929 86.94C77.8929 86.98 78.0829 87 78.2629 87L78.4429 87.39ZM98.614 108.3C96.734 108.3 95.094 107.86 93.694 106.98C92.294 106.1 91.214 104.85 90.454 103.23C89.694 101.59 89.314 99.67 89.314 97.47C89.314 95.29 89.694 93.39 90.454 91.77C91.214 90.15 92.294 88.9 93.694 88.02C95.094 87.14 96.734 86.7 98.614 86.7C100.514 86.7 102.164 87.14 103.564 88.02C104.984 88.9 106.074 90.15 106.834 91.77C107.594 93.39 107.974 95.29 107.974 97.47C107.974 99.67 107.594 101.59 106.834 103.23C106.074 104.85 104.984 106.1 103.564 106.98C102.164 107.86 100.514 108.3 98.614 108.3ZM98.614 107.37C100.274 107.37 101.714 106.97 102.934 106.17C104.174 105.35 105.124 104.2 105.784 102.72C106.464 101.22 106.804 99.47 106.804 97.47C106.804 95.47 106.464 93.73 105.784 92.25C105.124 90.77 104.174 89.63 102.934 88.83C101.714 88.03 100.274 87.63 98.614 87.63C96.974 87.63 95.534 88.03 94.294 88.83C93.074 89.63 92.134 90.77 91.474 92.25C90.814 93.73 90.484 95.47 90.484 97.47C90.484 99.47 90.814 101.22 91.474 102.72C92.134 104.2 93.074 105.35 94.294 106.17C95.534 106.97 96.974 107.37 98.614 107.37ZM99.514 81.3H100.834L98.044 85.44H97.564L99.514 81.3ZM116.31 87.93C116.27 87.77 116.25 87.66 116.25 87.6C116.25 87.38 116.32 87.21 116.46 87.09C116.62 86.95 116.82 86.88 117.06 86.88L123.78 105.51L130.29 87.51C130.43 87.09 130.69 86.88 131.07 86.88C131.27 86.88 131.45 86.92 131.61 87L124.02 108H123.54L116.31 87.93ZM153.794 107.04C153.854 107.16 153.884 107.28 153.884 107.4C153.884 107.6 153.804 107.75 153.644 107.85C153.504 107.95 153.294 108 153.014 108H142.004L141.824 107.61C142.124 107.01 142.324 106.32 142.424 105.54C142.544 104.76 142.604 103.7 142.604 102.36V92.58C142.604 91.24 142.544 90.19 142.424 89.43C142.324 88.67 142.124 87.99 141.824 87.39L142.004 87H153.314C153.374 87.12 153.404 87.24 153.404 87.36C153.404 87.56 153.324 87.71 153.164 87.81C153.024 87.91 152.814 87.96 152.534 87.96H143.204C143.564 88.9 143.744 90.44 143.744 92.58V96.42H152.354C152.414 96.54 152.444 96.66 152.444 96.78C152.444 97.16 152.154 97.35 151.574 97.35H143.744V102.36C143.744 104.54 143.564 106.1 143.204 107.04H153.794ZM165.494 108.12C165.374 108.12 165.244 108.08 165.104 108V87.93C165.104 87.23 165.354 86.88 165.854 86.88C165.974 86.88 166.104 86.92 166.244 87V107.07C166.244 107.77 165.994 108.12 165.494 108.12ZM184.597 108.3C183.277 108.3 182.097 108.13 181.057 107.79C180.017 107.43 179.197 107.03 178.597 106.59C177.997 106.13 177.697 105.78 177.697 105.54C177.697 105.18 177.897 105 178.297 105C179.777 106.58 181.807 107.37 184.387 107.37C186.247 107.37 187.657 106.97 188.617 106.17C189.577 105.37 190.057 104.23 190.057 102.75C190.057 101.87 189.867 101.11 189.487 100.47C189.107 99.83 188.487 99.25 187.627 98.73C186.767 98.19 185.597 97.67 184.117 97.17C182.037 96.45 180.567 95.66 179.707 94.8C178.847 93.94 178.417 92.85 178.417 91.53C178.417 89.97 178.917 88.78 179.917 87.96C180.917 87.12 182.337 86.7 184.177 86.7C185.377 86.7 186.477 86.88 187.477 87.24C188.477 87.58 189.267 87.98 189.847 88.44C190.427 88.88 190.717 89.22 190.717 89.46C190.717 89.82 190.517 90 190.117 90C189.397 89.24 188.547 88.66 187.567 88.26C186.587 87.84 185.507 87.63 184.327 87.63C182.807 87.63 181.627 87.97 180.787 88.65C179.967 89.33 179.557 90.27 179.557 91.47C179.557 92.53 179.957 93.42 180.757 94.14C181.557 94.84 182.937 95.54 184.897 96.24C186.457 96.8 187.687 97.38 188.587 97.98C189.507 98.58 190.167 99.25 190.567 99.99C190.987 100.71 191.197 101.58 191.197 102.6C191.197 104.42 190.627 105.83 189.487 106.83C188.347 107.81 186.717 108.3 184.597 108.3Z" fill="white"/>
<path d="M110.73 45.5078L96.9016 63.0469C96.3807 63.6719 95.8729 64.3229 95.3781 65C94.8833 65.651 94.4406 66.2891 94.05 66.9141C93.6594 67.5391 93.3339 68.125 93.0734 68.6719C92.8391 69.1927 92.7219 69.6354 92.7219 70L85.1437 70V69.8438C85.6906 69.349 86.4979 68.5938 87.5656 67.5781C88.6333 66.5625 89.7661 65.2865 90.9641 63.75L108.152 42.1484L90.4953 18.9453C89.5318 17.6953 88.5812 16.6536 87.6437 15.8203C86.7062 14.9609 86.0031 14.401 85.5344 14.1406V13.9844L97.7609 13.9844C97.7609 14.2969 97.8 14.7005 97.8781 15.1953C97.9823 15.6901 98.1646 16.276 98.425 16.9531C98.6854 17.6042 99.037 18.3333 99.4797 19.1406C99.9484 19.9479 100.547 20.8203 101.277 21.7578L112.566 36.5625L125.027 20.9766C125.495 20.4036 125.951 19.7786 126.394 19.1016C126.862 18.4245 127.266 17.7734 127.605 17.1484C127.969 16.4974 128.256 15.8984 128.464 15.3516C128.698 14.8047 128.816 14.349 128.816 13.9844L136.394 13.9844V14.1406C136.133 14.349 135.847 14.5964 135.534 14.8828C135.222 15.1693 134.857 15.5208 134.441 15.9375C134.05 16.3542 133.607 16.849 133.112 17.4219C132.618 17.9948 132.058 18.6719 131.433 19.4531L115.144 40L133.347 63.8281C134.597 65.4427 135.756 66.7839 136.823 67.8516C137.917 68.8932 138.711 69.5573 139.206 69.8437V70L127.058 70C127.058 69.401 126.81 68.4115 126.316 67.0312C125.821 65.651 124.896 64.0495 123.542 62.2266L110.73 45.5078ZM136.442 69.8437C136.598 69.2969 136.742 68.6198 136.872 67.8125C137.002 67.0052 137.119 66.0026 137.223 64.8047C137.328 63.6068 137.406 62.1875 137.458 60.5469C137.51 58.8802 137.536 56.9401 137.536 54.7266L137.536 29.2969C137.536 27.0833 137.51 25.1562 137.458 23.5156C137.406 21.849 137.328 20.4167 137.223 19.2187C137.119 17.9948 137.002 16.9792 136.872 16.1719C136.742 15.3646 136.598 14.6875 136.442 14.1406V13.9844L145.778 13.9844V14.1406C145.622 14.6875 145.466 15.3646 145.309 16.1719C145.179 16.9792 145.062 17.9948 144.958 19.2187C144.88 20.4167 144.802 21.849 144.723 23.5156C144.671 25.1562 144.645 27.0833 144.645 29.2969L144.645 54.7266C144.645 56.9401 144.671 58.8802 144.723 60.5469C144.802 62.1875 144.88 63.6068 144.958 64.8047C145.062 66.0026 145.179 67.0052 145.309 67.8125C145.466 68.6198 145.622 69.2969 145.778 69.8437V70L136.442 70V69.8437Z" fill="white"/>
</svg>
